<svg width="512" height="512" viewBox="0 0 512 512" fill="none" xmlns="http://www.w3.org/2000/svg">
  <defs>
    <linearGradient id="background" x1="76" y1="52" x2="440" y2="464" gradientUnits="userSpaceOnUse">
      <stop stop-color="#172554" />
      <stop offset="0.52" stop-color="#0F766E" />
      <stop offset="1" stop-color="#111827" />
    </linearGradient>
    <linearGradient id="accent" x1="135" y1="108" x2="382" y2="390" gradientUnits="userSpaceOnUse">
      <stop stop-color="#FDE68A" />
      <stop offset="1" stop-color="#67E8F9" />
    </linearGradient>
    <filter id="shadow" x="56" y="60" width="400" height="396" filterUnits="userSpaceOnUse" color-interpolation-filters="sRGB">
      <feDropShadow dx="0" dy="18" stdDeviation="18" flood-color="#020617" flood-opacity="0.32" />
    </filter>
  </defs>

  <rect width="512" height="512" rx="112" fill="url(#background)" />
  <path d="M96 103C142 58 226 41 305 67C384 93 445 161 456 242C467 323 427 419 350 452C273 485 158 455 105 386C52 317 50 148 96 103Z" fill="white" opacity="0.08" />

  <g filter="url(#shadow)">
    <circle cx="190" cy="186" r="72" fill="#F8FAFC" fill-opacity="0.95" />
    <circle cx="190" cy="186" r="52" stroke="#0F766E" stroke-width="16" />
    <path d="M190 151V189L220 211" stroke="#172554" stroke-width="17" stroke-linecap="round" stroke-linejoin="round" />

    <rect x="194" y="263" width="188" height="102" rx="28" fill="#F8FAFC" fill-opacity="0.95" />
    <path d="M237 301H282" stroke="#172554" stroke-width="18" stroke-linecap="round" />
    <path d="M237 328H337" stroke="#0F766E" stroke-width="18" stroke-linecap="round" />

    <path d="M305 137H380" stroke="url(#accent)" stroke-width="24" stroke-linecap="round" />
    <path d="M351 102L386 137L351 172" stroke="url(#accent)" stroke-width="24" stroke-linecap="round" stroke-linejoin="round" />
    <path d="M207 396H132" stroke="url(#accent)" stroke-width="24" stroke-linecap="round" />
    <path d="M161 431L126 396L161 361" stroke="url(#accent)" stroke-width="24" stroke-linecap="round" stroke-linejoin="round" />
  </g>
</svg>
